<svg xmlns="http://www.w3.org/2000/svg" viewBox="0 0 768 576" role="img" aria-label="大家都叫他C罗。">
        <rect width="768" height="576" fill="#8ed8ff"/>
        <rect y="220" width="768" height="200" fill="#ffe27a" opacity=".35"/>
        <circle cx="640" cy="86" r="40" fill="#ffd34d"/>
        <ellipse cx="384" cy="530" rx="360" ry="70" fill="#62c95c"/><g transform="translate(380 300) scale(1)">
        <ellipse cx="0" cy="138" rx="46" ry="10" fill="#2c2419" opacity=".14"/>
        <path d="M-16 78 l-10 52M16 78 l16 50" stroke="#2c2419" stroke-width="14" stroke-linecap="round"/>
        <path d="M-32 8 h64 l16 72 h-96z" fill="#ef4f3d" stroke="#2c2419" stroke-width="5"/>
        <path d="M-28 28 l-18 40M28 28 l22 38" stroke="#ef4f3d" stroke-width="12" stroke-linecap="round"/>
        <circle cx="0" cy="-18" r="30" fill="#f4c69b" stroke="#2c2419" stroke-width="5"/>
        <path d="M-28 -28 C-18 -58 22 -62 32 -24 C12 -36 0 -24 -14 -38z" fill="#2b2118"/>
        <circle cx="-10" cy="-18" r="3.4" fill="#2c2419"/><circle cx="10" cy="-18" r="3.4" fill="#2c2419"/>
        <path d="M-14 10 Q0 20 14 10" fill="none" stroke="#2c2419" stroke-width="3.5" stroke-linecap="round"/>
        
    </g><g transform="translate(120 330) scale(0.72)">
        <ellipse cx="0" cy="138" rx="46" ry="10" fill="#2c2419" opacity=".14"/>
        <path d="M-16 78 l-10 52M16 78 l16 50" stroke="#2c2419" stroke-width="14" stroke-linecap="round"/>
        <path d="M-32 8 h64 l16 72 h-96z" fill="#4aa3ff" stroke="#2c2419" stroke-width="5"/>
        <path d="M-28 28 l-16 40M28 26 l40 -6" stroke="#4aa3ff" stroke-width="12" stroke-linecap="round"/>
        <circle cx="0" cy="-18" r="30" fill="#f4c69b" stroke="#2c2419" stroke-width="5"/>
        <path d="M-28 -28 C-18 -58 22 -62 32 -24 C12 -36 0 -24 -14 -38z" fill="#2b2118"/>
        <circle cx="-10" cy="-18" r="3.4" fill="#2c2419"/><circle cx="10" cy="-18" r="3.4" fill="#2c2419"/>
        <path d="M-14 10 Q0 20 14 10" fill="none" stroke="#2c2419" stroke-width="3.5" stroke-linecap="round"/>
        
    </g><g transform="translate(230 340) scale(0.72)">
        <ellipse cx="0" cy="138" rx="46" ry="10" fill="#2c2419" opacity=".14"/>
        <path d="M-16 78 l-10 52M16 78 l16 50" stroke="#2c2419" stroke-width="14" stroke-linecap="round"/>
        <path d="M-32 8 h64 l16 72 h-96z" fill="#ffd34d" stroke="#2c2419" stroke-width="5"/>
        <path d="M-28 28 l-16 40M28 26 l40 -6" stroke="#ffd34d" stroke-width="12" stroke-linecap="round"/>
        <circle cx="0" cy="-18" r="30" fill="#f4c69b" stroke="#2c2419" stroke-width="5"/>
        <path d="M-28 -28 C-18 -58 22 -62 32 -24 C12 -36 0 -24 -14 -38z" fill="#2b2118"/>
        <circle cx="-10" cy="-18" r="3.4" fill="#2c2419"/><circle cx="10" cy="-18" r="3.4" fill="#2c2419"/>
        <path d="M-14 10 Q0 20 14 10" fill="none" stroke="#2c2419" stroke-width="3.5" stroke-linecap="round"/>
        
    </g>
                <rect x="500" y="180" width="140" height="56" rx="18" fill="#fff" stroke="#2c2419" stroke-width="5"/>
                <text x="570" y="218" text-anchor="middle" font-size="32" font-weight="800" fill="#2c2419">C罗</text>
        <rect y="500" width="768" height="76" fill="#fffdf2" stroke="#2c2419" stroke-width="5"/>
        <text x="384" y="548" text-anchor="middle" font-size="30" font-weight="800" fill="#2c2419">大家都叫他C罗。</text>
    </svg>