<svg xmlns="http://www.w3.org/2000/svg" viewBox="0 0 768 576" role="img" aria-label="他还在训练。">
        <rect width="768" height="576" fill="#1a3268"/>
            <circle cx="640" cy="80" r="28" fill="#f7f1c8"/>
            <circle cx="120" cy="70" r="3" fill="#fff"/><circle cx="200" cy="40" r="2" fill="#fff"/>
            <circle cx="480" cy="50" r="2.5" fill="#fff"/><circle cx="300" cy="90" r="2" fill="#fff"/>
            <ellipse cx="384" cy="530" rx="360" ry="70" fill="#2a4a32"/><g transform="translate(300 300) scale(1)">
        <ellipse cx="0" cy="138" rx="46" ry="10" fill="#2c2419" opacity=".14"/>
        <path d="M-16 78 l-8 52M18 78 l48 8" stroke="#2c2419" stroke-width="14" stroke-linecap="round"/>
        <path d="M-32 8 h64 l16 72 h-96z" fill="#ef4f3d" stroke="#2c2419" stroke-width="5"/>
        <path d="M-28 28 l-18 40M28 28 l22 38" stroke="#ef4f3d" stroke-width="12" stroke-linecap="round"/>
        <circle cx="0" cy="-18" r="30" fill="#f4c69b" stroke="#2c2419" stroke-width="5"/>
        <path d="M-28 -28 C-18 -58 22 -62 32 -24 C12 -36 0 -24 -14 -38z" fill="#2b2118"/>
        <circle cx="-10" cy="-18" r="3.4" fill="#2c2419"/><circle cx="10" cy="-18" r="3.4" fill="#2c2419"/>
        <path d="M-12 12 H12" fill="none" stroke="#2c2419" stroke-width="3.5" stroke-linecap="round"/>
        
    </g><g transform="translate(500 380) scale(1)">
        <circle r="26" fill="#fff" stroke="#2c2419" stroke-width="5"/>
        <path d="M0 -14 L12 -4 L7 12 H-7 L-12 -4z" fill="#2c2419"/>
        
    </g>
        <rect y="500" width="768" height="76" fill="#fffdf2" stroke="#2c2419" stroke-width="5"/>
        <text x="384" y="548" text-anchor="middle" font-size="30" font-weight="800" fill="#2c2419">他还在训练。</text>
    </svg>